<svg width="250" height="29" viewBox="0 0 291 29" fill="none" xmlns="http://www.w3.org/2000/svg">
<path d="M4.74609 22.9835C4.21484 23.4131 3.66406 23.628 3.09375 23.628C2.77344 23.628 2.49609 23.5577 2.26172 23.4171C2.03516 23.2686 1.92188 23.0655 1.92188 22.8077C2.27344 22.4405 2.44922 21.4991 2.44922 19.9835C2.44922 19.046 2.375 17.7217 2.22656 16.0108C2.07812 14.2999 2.00391 12.9835 2.00391 12.0616C2.00391 11.7803 2.01562 11.3467 2.03906 10.7608C2.0625 10.1749 2.07422 9.73346 2.07422 9.43658C2.07422 8.99127 1.98828 8.42096 1.81641 7.72565C1.63672 6.99127 1.54688 6.48737 1.54688 6.21393C1.54688 5.65924 2.16016 5.3819 3.38672 5.3819H3.75C4.19531 5.3819 4.60938 5.45612 4.99219 5.60455C5.38281 5.74518 5.72266 5.93658 6.01172 6.17877C6.26953 6.39752 6.50781 6.68268 6.72656 7.03424C6.95312 7.37799 7.14453 7.73737 7.30078 8.11237C7.43359 8.44049 7.55078 8.82721 7.65234 9.27252C7.76172 9.71002 7.84766 10.1202 7.91016 10.503C7.94922 10.8155 7.98438 11.1827 8.01562 11.6046C8.04688 12.0186 8.06641 12.3624 8.07422 12.6358V13.3975V14.5108C8.03516 14.5733 8.01562 14.6436 8.01562 14.7217C8.01562 14.7999 8.02734 14.8936 8.05078 15.003L8.07422 15.2374C8.07422 15.753 7.99609 16.3624 7.83984 17.0655C7.68359 17.7686 7.46094 18.4952 7.17188 19.2452C6.83594 20.0811 6.47266 20.8155 6.08203 21.4483C5.69141 22.0733 5.24609 22.585 4.74609 22.9835ZM3.31641 13.3741C3.50391 16.2803 3.59766 18.4678 3.59766 19.9366V22.2335C4.18359 21.8506 4.69922 21.3155 5.14453 20.628C5.59766 19.9327 5.94531 19.1592 6.1875 18.3077C6.625 16.7296 6.84375 15.1475 6.84375 13.5616C6.84375 12.6866 6.76172 11.7452 6.59766 10.7374C6.42578 9.75299 6.05469 8.85065 5.48438 8.03033C5.21875 7.64752 4.87109 7.35065 4.44141 7.13971C4.01953 6.92877 3.54688 6.8233 3.02344 6.8233V6.84674C3.02344 8.34674 3.12109 10.5225 3.31641 13.3741ZM14.9414 5.82721C14.9414 5.74908 14.9844 5.66705 15.0703 5.58112C15.4297 5.24518 16.0039 4.74127 16.793 4.0694C17.5352 3.4444 18.0078 3.03424 18.2109 2.83893C18.2969 2.80768 18.3633 2.79205 18.4102 2.79205C18.5977 2.79205 18.7734 2.88971 18.9375 3.08502C19.1094 3.28033 19.1953 3.48346 19.1953 3.6944C19.1953 3.85846 19.1367 3.98346 19.0195 4.0694C18.3789 4.53815 17.2148 5.21393 15.5273 6.09674C15.4727 6.12799 15.4062 6.14362 15.3281 6.14362C15.2266 6.14362 15.1367 6.11237 15.0586 6.04987C14.9805 5.98737 14.9414 5.91315 14.9414 5.82721ZM18.1523 12.085C18.2461 12.7413 18.293 13.4522 18.293 14.2178V14.3936L18.3164 15.753L18.3398 17.1124C18.3398 21.7139 17.2734 24.0147 15.1406 24.0147C14.7109 24.0147 14.3203 23.8858 13.9688 23.628C13.6172 23.3702 13.3359 23.0108 13.125 22.5499C12.6719 21.6046 12.3789 20.5421 12.2461 19.3624C12.1133 18.2686 12.0469 17.2256 12.0469 16.2335C12.0469 16.0381 12.0508 15.878 12.0586 15.753C12.0664 15.628 12.0703 15.4835 12.0703 15.3194C12.0703 15.2413 12.0586 15.2022 12.0352 15.2022V14.7686C12.0352 14.6436 12.043 14.2999 12.0586 13.7374C12.0586 13.4874 12.0625 13.2725 12.0703 13.0928C12.0781 12.6631 12.0938 12.2803 12.1172 11.9444C12.1484 11.6085 12.1953 11.171 12.2578 10.6319C12.3047 10.1944 12.3711 9.80768 12.457 9.47174C12.543 9.12799 12.6562 8.77252 12.7969 8.40533C12.9141 8.08502 13.0625 7.84283 13.2422 7.67877C13.4219 7.5069 13.6211 7.42096 13.8398 7.42096C14.4805 7.42096 15.0586 7.53815 15.5742 7.77252C16.0898 8.0069 16.5195 8.33112 16.8633 8.74518C17.1836 9.14362 17.4531 9.6319 17.6719 10.21C17.8984 10.7881 18.0586 11.4131 18.1523 12.085ZM15.75 9.01471C15.4531 8.80377 15.1211 8.6983 14.7539 8.6983C14.207 8.6983 13.8438 9.0069 13.6641 9.62408C13.5781 9.91315 13.5195 10.2061 13.4883 10.503C13.457 10.7921 13.4414 11.1358 13.4414 11.5342C13.4414 11.8389 13.4453 12.0967 13.4531 12.3077C13.4609 12.5186 13.4648 12.7335 13.4648 12.9522C13.4648 13.1475 13.4453 13.5186 13.4062 14.0655C13.3672 14.6124 13.3477 14.9796 13.3477 15.1671C13.3477 15.7452 13.3789 16.6006 13.4414 17.7335C13.5039 18.9366 13.6602 20.1046 13.9102 21.2374C14.0273 21.7921 14.1836 22.2296 14.3789 22.5499C14.582 22.8624 14.8047 23.0186 15.0469 23.0186C15.3281 23.0186 15.5859 22.9053 15.8203 22.6788C16.0625 22.4444 16.2539 22.1241 16.3945 21.7178C16.6758 20.9131 16.8594 20.0381 16.9453 19.0928C17.0156 18.2491 17.0508 17.5381 17.0508 16.96C17.0508 16.2803 17 15.3428 16.8984 14.1475C16.7891 12.8585 16.7344 11.9327 16.7344 11.3702V10.9483C16.7188 10.5577 16.625 10.1905 16.4531 9.84674C16.2812 9.49518 16.0469 9.21783 15.75 9.01471Z" fill="#F66F87"/>
<path d="M43.7761 16.4913C43.3542 15.1475 43.0613 14.1514 42.8972 13.503V22.96C42.8972 23.2178 42.8503 23.4092 42.7566 23.5342C42.6628 23.6592 42.4871 23.7217 42.2292 23.7217C42.0496 23.7217 41.9011 23.6592 41.7839 23.5342C41.6746 23.4014 41.6199 23.2413 41.6199 23.0538V22.8663C41.6199 20.9522 41.6355 18.6046 41.6667 15.8233C41.698 13.0421 41.7136 10.6983 41.7136 8.79205V5.83893C41.7136 5.64362 41.7527 5.5108 41.8308 5.44049C41.9167 5.36237 42.0886 5.3233 42.3464 5.3233C42.7371 5.3233 43.1003 5.40143 43.4363 5.55768C43.78 5.71393 44.073 5.92877 44.3152 6.20221C44.5417 6.46783 44.7371 6.77643 44.9011 7.12799C45.0652 7.47174 45.1863 7.83112 45.2644 8.20612C45.3347 8.56549 45.3699 8.93268 45.3699 9.30768C45.3699 9.65924 45.3152 10.1085 45.2058 10.6553C45.1511 10.9366 45.0105 11.3819 44.7839 11.9913L44.5027 12.6827L44.2566 13.3038C44.2644 13.8819 44.3582 14.6124 44.5378 15.4952C44.7253 16.378 44.9363 17.1905 45.1707 17.9327C45.3816 18.6202 45.6667 19.4952 46.0261 20.5577L46.7292 22.6788V22.7374C46.7292 22.8702 46.7214 22.9874 46.7058 23.0889C46.698 23.1905 46.6824 23.2999 46.6589 23.4171C46.6042 23.6827 46.4324 23.8155 46.1433 23.8155C45.8464 23.8155 45.5574 23.6006 45.2761 23.171V23.0889C45.2292 22.253 45.0808 21.3155 44.8308 20.2764C44.5886 19.2296 44.2371 17.9678 43.7761 16.4913ZM42.8386 12.4249C43.1199 12.1592 43.3894 11.8506 43.6472 11.4991L44.0222 9.42487C44.0378 9.28424 44.0457 9.17877 44.0457 9.10846C44.0457 8.6319 43.9519 8.09283 43.7644 7.49127C43.6707 7.20221 43.5496 6.96002 43.4011 6.76471C43.2605 6.5694 43.1082 6.45612 42.9441 6.42487C42.9441 6.81549 42.9246 7.61627 42.8855 8.82721C42.8386 9.91315 42.8152 10.7452 42.8152 11.3233C42.8152 11.7296 42.823 12.0967 42.8386 12.4249ZM50.6316 3.70612C50.6316 3.62799 50.6746 3.54596 50.7605 3.46002C51.1199 3.12408 51.6941 2.62018 52.4832 1.9483C53.2253 1.3233 53.698 0.913147 53.9011 0.717834C53.9871 0.686584 54.0535 0.670959 54.1003 0.670959C54.2878 0.670959 54.4636 0.768616 54.6277 0.963928C54.7996 1.15924 54.8855 1.36237 54.8855 1.5733C54.8855 1.73737 54.8269 1.86237 54.7097 1.9483C54.0691 2.41705 52.905 3.09283 51.2175 3.97565C51.1628 4.0069 51.0964 4.02252 51.0183 4.02252C50.9167 4.02252 50.8269 3.99127 50.7488 3.92877C50.6707 3.86627 50.6316 3.79205 50.6316 3.70612ZM53.1042 22.2686C54.0183 22.2686 54.4753 22.4796 54.4753 22.9014V22.9835C54.3738 23.1866 54.1941 23.3506 53.9363 23.4756C53.6863 23.5928 53.4441 23.6631 53.2097 23.6866C52.9441 23.7022 52.6824 23.71 52.4246 23.71H51.6746C51.4792 23.71 51.3269 23.7022 51.2175 23.6866C51.116 23.6788 51.0027 23.6514 50.8777 23.6046C50.6121 23.5108 50.4792 23.2842 50.4792 22.9249V8.97955C50.4792 8.72955 50.4246 8.3233 50.3152 7.7608C50.2058 7.1983 50.1511 6.78815 50.1511 6.53033V6.4483C50.4167 6.01862 50.616 5.73737 50.7488 5.60455C50.9441 5.60455 51.241 5.5694 51.6394 5.49908C52.0378 5.42877 52.3347 5.39362 52.53 5.39362C52.7878 5.39362 53.0339 5.47174 53.2683 5.62799C53.5105 5.77643 53.6316 5.96002 53.6316 6.17877C53.6316 6.65533 53.2683 6.89362 52.5417 6.89362C52.4167 6.89362 52.3035 6.88971 52.2019 6.8819C52.1003 6.87408 51.9832 6.87018 51.8503 6.87018C51.7175 6.87018 51.6316 6.87408 51.5925 6.8819C51.5925 7.26471 51.6238 7.92487 51.6863 8.86237C51.7488 9.79987 51.78 10.46 51.78 10.8428C51.78 11.0928 51.7605 11.5577 51.7214 12.2374C51.6824 12.9249 51.6628 13.3741 51.6628 13.585C51.655 13.585 51.7722 13.5577 52.0144 13.503C52.3191 13.4171 52.5769 13.3741 52.7878 13.3741C52.9753 13.3741 53.1394 13.4405 53.28 13.5733C53.4207 13.7061 53.491 13.8624 53.491 14.0421C53.491 14.2452 53.4285 14.421 53.3035 14.5694C53.1863 14.71 53.0378 14.7803 52.8582 14.7803C52.7644 14.7803 52.6746 14.7764 52.5886 14.7686C52.4949 14.7608 52.3855 14.7569 52.2605 14.7569C52.0261 14.7569 51.8621 14.8155 51.7683 14.9327V22.3389L53.1042 22.2686Z" fill="#555BA6"/>
<path d="M83.0576 8.78033C83.2139 7.73346 83.3232 6.73737 83.3857 5.79205V5.65143C83.417 5.4483 83.5107 5.28424 83.667 5.15924C83.8311 5.03424 84.0225 4.97174 84.2412 4.97174C84.3818 4.97174 84.5107 5.03815 84.6279 5.17096C84.7451 5.29596 84.8037 5.43268 84.8037 5.58112C84.8037 7.59674 84.8779 10.4639 85.0264 14.1827C85.167 18.003 85.2373 20.8702 85.2373 22.7842C85.2373 23.0264 85.1904 23.2569 85.0967 23.4756C85.0029 23.6944 84.8818 23.8702 84.7334 24.003C84.585 24.1358 84.4365 24.2022 84.2881 24.2022C84.1318 24.2022 84.0029 24.1163 83.9014 23.9444C83.8076 23.7803 83.7607 23.5499 83.7607 23.253C83.7607 21.8858 83.7451 20.2022 83.7139 18.2022C83.6826 16.2022 83.667 14.5186 83.667 13.1514V11.9327C83.5654 12.5499 83.3193 13.628 82.9287 15.1671C82.5381 16.7139 82.292 17.8975 82.1904 18.7178V18.8702L82.1201 19.3155C82.0889 19.5499 82.0537 19.7452 82.0146 19.9014C81.9834 20.0499 81.9326 20.2139 81.8623 20.3936C81.7217 20.7764 81.4756 20.9678 81.124 20.9678C80.5537 20.9678 80.2686 20.2217 80.2686 18.7296C80.2686 17.9014 80.1826 17.0108 80.0107 16.0577C79.8467 15.1046 79.5771 13.9288 79.2021 12.5303C78.8271 11.171 78.5928 10.2725 78.499 9.83502C78.4678 10.9678 78.4521 11.9327 78.4521 12.7296C78.4521 13.8233 78.4873 15.4678 78.5576 17.6631C78.6201 19.9991 78.6514 21.6436 78.6514 22.5967C78.6514 22.9483 78.5303 23.2491 78.2881 23.4991C77.8975 23.4991 77.624 23.3741 77.4678 23.1241C77.3115 22.8741 77.2334 22.5069 77.2334 22.0225C77.2334 21.6788 77.2529 21.0264 77.292 20.0655C77.3311 19.1124 77.3506 18.4678 77.3506 18.1319C77.3506 17.0928 77.3389 15.5421 77.3154 13.4796C77.2842 11.6436 77.2686 10.0967 77.2686 8.83893C77.2686 7.79987 77.2803 6.76471 77.3037 5.73346L77.9717 5.35846C78.2061 5.36627 78.4717 5.72174 78.7686 6.42487C79.1982 7.48737 79.7178 9.47565 80.3271 12.3897C80.5537 13.4678 80.7607 14.5147 80.9482 15.5303C81.1514 16.6319 81.2686 17.2491 81.2998 17.3819C81.3623 17.0616 81.4795 16.5303 81.6514 15.7881C81.6982 15.5694 81.7412 15.3624 81.7803 15.1671C81.8271 14.9717 81.8701 14.7881 81.9092 14.6163C82.2295 13.171 82.46 12.0967 82.6006 11.3936C82.7412 10.6905 82.8936 9.8194 83.0576 8.78033ZM93.1592 22.9249V23.0655L92.5615 23.4756L91.9287 23.4991C91.5459 23.5225 91.2139 23.5342 90.9326 23.5342C89.5498 23.5342 88.8584 23.296 88.8584 22.8194C88.8584 22.4366 89.1006 22.2452 89.585 22.2452C89.6943 22.2452 89.7881 22.2491 89.8662 22.2569L90.0889 22.2803C90.2139 22.2803 90.3037 22.2413 90.3584 22.1631C90.4131 22.0772 90.4404 21.9288 90.4404 21.7178C90.4404 20.421 90.3662 18.5694 90.2178 16.1631C90.0693 13.7647 89.9951 11.9171 89.9951 10.6202L90.0186 9.38971L90.042 8.17096C90.042 7.6944 90.0225 7.24908 89.9834 6.83502C89.7725 6.90533 89.585 6.94049 89.4209 6.94049C89.0459 6.94049 88.8584 6.74908 88.8584 6.36627C88.8584 6.17877 88.9756 6.01471 89.21 5.87408C89.4443 5.72565 89.749 5.61627 90.124 5.54596C90.7725 5.42877 91.3389 5.37018 91.8232 5.37018C92.0107 5.37018 92.1748 5.43658 92.3154 5.5694C92.4561 5.6944 92.5264 5.84674 92.5264 6.02643C92.5264 6.1983 92.4717 6.35065 92.3623 6.48346C92.2607 6.60846 92.1279 6.67096 91.9639 6.67096C91.8701 6.67096 91.792 6.66705 91.7295 6.65924H91.542C91.3779 6.65924 91.2607 6.6944 91.1904 6.76471C91.1201 6.83502 91.085 6.96393 91.085 7.15143C91.085 8.77643 91.1826 11.1163 91.3779 14.171C91.5732 17.2256 91.6709 19.5655 91.6709 21.1905V22.1163C91.835 22.0928 91.999 22.0811 92.1631 22.0811C92.8271 22.0811 93.1592 22.3624 93.1592 22.9249Z" fill="#86C697"/>
<path d="M118.174 22.5499L118.138 22.6202C118.17 22.7061 118.185 22.8038 118.185 22.9131C118.185 23.1163 118.111 23.2803 117.963 23.4053C117.814 23.5303 117.619 23.5928 117.377 23.5928C116.916 23.5928 116.685 23.0811 116.685 22.0577C116.685 20.9717 116.646 19.1905 116.568 16.7139C116.49 14.2296 116.392 11.9796 116.275 9.96393C116.166 7.94049 116.06 6.85065 115.959 6.6944C115.959 6.46002 116.006 6.2569 116.099 6.08502C116.201 5.90533 116.33 5.76471 116.486 5.66315C116.619 5.57721 116.799 5.5108 117.025 5.46393C117.26 5.40924 117.47 5.37799 117.658 5.37018C117.767 5.36237 117.974 5.35846 118.279 5.35846C118.638 5.35846 118.896 5.41705 119.052 5.53424C119.217 5.65143 119.299 5.86627 119.299 6.17877C119.299 6.34283 119.232 6.47174 119.099 6.56549C118.974 6.65143 118.818 6.6944 118.631 6.6944L118.396 6.68268C118.302 6.67487 118.185 6.67096 118.045 6.67096C117.599 6.67096 117.377 6.7608 117.377 6.94049C117.377 7.68268 117.435 8.76862 117.552 10.1983C117.662 11.5811 117.724 12.6436 117.74 13.3858C117.756 13.378 117.931 13.335 118.267 13.2569C118.603 13.171 118.873 13.128 119.076 13.128C119.256 13.128 119.408 13.2061 119.533 13.3624C119.666 13.5108 119.732 13.6788 119.732 13.8663C119.732 14.0928 119.631 14.253 119.427 14.3467C119.295 14.4092 119.181 14.46 119.088 14.4991C118.994 14.5303 118.877 14.5538 118.736 14.5694C118.478 14.6085 118.236 14.6319 118.01 14.6397L117.74 14.6514C117.74 15.4717 117.818 16.7725 117.974 18.5538C118.123 20.2413 118.197 21.546 118.197 22.4678L118.174 22.5499ZM127.806 3.8233C127.806 3.74518 127.849 3.66315 127.935 3.57721C128.302 3.23346 128.877 2.72955 129.658 2.06549C130.4 1.44049 130.873 1.03033 131.076 0.835022C131.162 0.803772 131.228 0.788147 131.275 0.788147C131.463 0.788147 131.638 0.885803 131.802 1.08112C131.974 1.27643 132.06 1.47955 132.06 1.69049C132.06 1.85455 132.002 1.97955 131.885 2.06549C131.244 2.53424 130.08 3.21002 128.392 4.09283C128.338 4.12408 128.271 4.13971 128.193 4.13971C128.092 4.13971 128.002 4.10846 127.924 4.04596C127.845 3.98346 127.806 3.90924 127.806 3.8233ZM127.842 5.48737C128.177 5.48737 128.435 5.55768 128.615 5.6983C128.615 6.29205 128.771 7.83502 129.084 10.3272C129.396 12.8194 129.552 14.46 129.552 15.2491C129.552 15.9991 129.638 17.21 129.81 18.8819C129.974 20.6006 130.056 21.8897 130.056 22.7491C130.056 23.2881 129.791 23.5577 129.26 23.5577C129.002 23.5577 128.814 23.5108 128.697 23.4171C128.58 23.3233 128.521 23.1631 128.521 22.9366V19.8077C128.31 19.6592 127.92 19.5303 127.349 19.421C126.787 19.3038 126.244 19.2296 125.72 19.1983C125.564 19.4639 125.431 19.8702 125.322 20.4171L125.252 20.7803C125.127 21.421 125.013 21.9405 124.912 22.3389C124.81 22.7374 124.685 23.0577 124.537 23.2999C123.92 23.2999 123.568 23.1397 123.482 22.8194C123.631 22.6085 123.83 21.8585 124.08 20.5694C124.291 19.4678 124.552 18.003 124.865 16.1749C125.224 14.0499 125.552 12.2647 125.849 10.8194C126.146 9.36627 126.459 8.14362 126.787 7.15143C127.146 6.04205 127.498 5.48737 127.842 5.48737ZM128.252 15.7178C127.885 12.0147 127.701 9.80377 127.701 9.08502C127.701 8.96783 127.705 8.89752 127.713 8.87408C127.556 9.03033 127.338 9.75299 127.056 11.0421C126.775 12.3311 126.513 13.7178 126.271 15.2022C126.029 16.6788 125.896 17.6553 125.873 18.1319C126.552 18.3116 127.263 18.4014 128.006 18.4014C128.146 18.4014 128.31 18.378 128.498 18.3311C128.474 17.9874 128.392 17.1163 128.252 15.7178Z" fill="#DA6F58"/>
<path d="M153.975 7.53815C153.881 7.85065 153.834 8.15533 153.834 8.45221C153.834 9.0694 153.916 9.6983 154.08 10.3389C154.244 10.9717 154.463 11.5577 154.737 12.0967L154.912 12.4483C155.662 13.9249 156.162 14.9288 156.412 15.46C156.686 16.0303 156.905 16.6788 157.069 17.4053C157.233 18.1241 157.315 18.8428 157.315 19.5616C157.315 20.0616 157.244 20.5694 157.104 21.085C156.971 21.6006 156.78 22.085 156.53 22.5381C156.264 23.0147 155.912 23.3936 155.475 23.6749C155.037 23.9561 154.557 24.0967 154.033 24.0967C153.455 24.0967 152.963 23.9913 152.557 23.7803C152.299 23.6553 152.17 23.4913 152.17 23.2881C152.17 23.1006 152.217 22.9483 152.311 22.8311C152.405 22.7061 152.537 22.6436 152.709 22.6436C152.897 22.6436 153.135 22.7022 153.424 22.8194C153.705 22.9444 153.908 23.0069 154.033 23.0069C154.33 23.0069 154.604 22.8741 154.854 22.6085C155.112 22.3428 155.315 21.9991 155.463 21.5772C155.604 21.1866 155.709 20.7999 155.78 20.4171C155.858 20.0342 155.897 19.6983 155.897 19.4092C155.897 18.7296 155.787 18.0108 155.569 17.253C155.35 16.4952 155.057 15.753 154.69 15.0264L154.35 14.3585C153.967 13.6163 153.658 12.9913 153.424 12.4835C153.19 11.9678 152.987 11.4249 152.815 10.8546C152.58 10.0889 152.463 9.34674 152.463 8.62799C152.463 8.04987 152.561 7.5069 152.756 6.99908C152.951 6.48346 153.252 6.04596 153.658 5.68658C154.065 5.31158 154.557 5.12408 155.135 5.12408C155.424 5.12408 155.705 5.20612 155.979 5.37018C156.252 5.53424 156.444 5.74127 156.553 5.99127L156.143 6.5069C155.744 6.5069 155.432 6.42877 155.205 6.27252C154.924 6.30377 154.67 6.44049 154.444 6.68268C154.225 6.92487 154.069 7.21002 153.975 7.53815ZM163.045 5.1944C163.311 5.06158 163.596 4.99518 163.901 4.99518C164.315 4.99518 164.694 5.08112 165.037 5.25299C165.381 5.42487 165.674 5.67487 165.916 6.00299C166.174 6.36237 166.393 6.74127 166.573 7.13971C166.752 7.53815 166.897 7.99518 167.006 8.5108C167.131 9.12799 167.229 9.67487 167.299 10.1514C167.369 10.628 167.416 11.1592 167.44 11.7452C167.494 12.9249 167.522 13.9913 167.522 14.9444V16.3272C167.522 16.6788 167.487 17.1905 167.416 17.8624C167.346 18.5264 167.311 19.0264 167.311 19.3624V19.4678C167.209 19.8975 167.158 20.4249 167.158 21.0499C167.158 21.4952 167.065 21.9561 166.877 22.4327C166.69 22.9092 166.42 23.3233 166.069 23.6749C165.709 24.0499 165.307 24.2374 164.862 24.2374C164.44 24.2374 164.045 24.0928 163.678 23.8038C163.319 23.5147 163.018 23.128 162.776 22.6436C162.549 22.1983 162.346 21.6553 162.166 21.0147C161.987 20.3741 161.846 19.7335 161.744 19.0928C161.651 18.5303 161.573 17.9171 161.51 17.253C161.455 16.5811 161.416 15.9874 161.393 15.4717C161.377 14.878 161.369 14.4561 161.369 14.2061C161.369 13.7686 161.365 13.3389 161.358 12.9171L161.334 11.4053C161.334 10.4522 161.373 9.60065 161.451 8.85065C161.53 8.0069 161.694 7.25299 161.944 6.58893C162.076 6.24518 162.229 5.96393 162.401 5.74518C162.573 5.51862 162.787 5.33502 163.045 5.1944ZM164.791 6.58893C164.557 6.37018 164.299 6.2608 164.018 6.2608C163.643 6.2608 163.346 6.5733 163.127 7.1983C162.885 7.90924 162.729 8.62799 162.658 9.35455C162.557 10.3155 162.498 11.1241 162.483 11.7803L162.471 12.2256C162.455 12.9756 162.448 13.3936 162.448 13.4796V13.585C162.448 14.6475 162.553 15.9639 162.764 17.5342C162.897 18.5577 163.049 19.4444 163.221 20.1944C163.401 20.9444 163.631 21.5772 163.912 22.0928C164.209 22.6475 164.541 22.9249 164.908 22.9249C165.229 22.9249 165.502 22.6241 165.729 22.0225C165.924 21.4913 166.069 20.835 166.162 20.0538C166.256 19.2647 166.33 18.4171 166.385 17.5108C166.416 16.9561 166.432 16.4249 166.432 15.9171C166.432 15.1983 166.42 14.46 166.397 13.7022C166.358 12.8506 166.264 11.7725 166.115 10.4678C165.983 9.39752 165.744 8.42096 165.401 7.53815C165.237 7.12408 165.033 6.80768 164.791 6.58893ZM173.182 15.3546C173.244 16.8389 173.276 18.9249 173.276 21.6124V22.2217H175.104C175.448 22.4561 175.619 22.6944 175.619 22.9366C175.619 23.1163 175.561 23.2764 175.444 23.4171C175.326 23.5499 175.182 23.6163 175.01 23.6163C174.932 23.6163 174.85 23.6006 174.764 23.5694L174.647 23.5342C174.53 23.5655 174.377 23.5811 174.19 23.5811L173.803 23.5577C173.686 23.5499 173.557 23.546 173.416 23.546C173.252 23.7413 173.026 23.8389 172.737 23.8389C172.526 23.8389 172.338 23.7608 172.174 23.6046C172.01 23.4561 171.928 23.2803 171.928 23.0772C171.928 22.9366 171.955 22.7569 172.01 22.5381C172.057 22.3116 172.08 22.1397 172.08 22.0225C172.08 20.296 172.002 17.5655 171.846 13.8311C171.682 10.1983 171.6 7.47174 171.6 5.65143C171.6 5.5108 171.655 5.39362 171.764 5.29987C171.881 5.20612 172.022 5.15924 172.186 5.15924C172.381 5.15924 172.549 5.22955 172.69 5.37018C172.838 5.50299 172.912 5.66315 172.912 5.85065C172.912 6.71783 172.955 8.15924 173.041 10.1749C173.119 12.003 173.158 13.4405 173.158 14.4874L173.182 14.7803C173.19 14.8663 173.194 14.9639 173.194 15.0733C173.194 15.1671 173.19 15.2256 173.182 15.2491V15.3546Z" fill="#F66F87"/>
<path d="M200.113 15.3546C200.176 16.8389 200.207 18.9249 200.207 21.6124V22.2217H202.035C202.379 22.4561 202.551 22.6944 202.551 22.9366C202.551 23.1163 202.492 23.2764 202.375 23.4171C202.258 23.5499 202.113 23.6163 201.941 23.6163C201.863 23.6163 201.781 23.6006 201.695 23.5694L201.578 23.5342C201.461 23.5655 201.308 23.5811 201.121 23.5811L200.734 23.5577C200.617 23.5499 200.488 23.546 200.347 23.546C200.183 23.7413 199.957 23.8389 199.668 23.8389C199.457 23.8389 199.269 23.7608 199.105 23.6046C198.941 23.4561 198.859 23.2803 198.859 23.0772C198.859 22.9366 198.886 22.7569 198.941 22.5381C198.988 22.3116 199.011 22.1397 199.011 22.0225C199.011 20.296 198.933 17.5655 198.777 13.8311C198.613 10.1983 198.531 7.47174 198.531 5.65143C198.531 5.5108 198.586 5.39362 198.695 5.29987C198.812 5.20612 198.953 5.15924 199.117 5.15924C199.312 5.15924 199.48 5.22955 199.621 5.37018C199.769 5.50299 199.844 5.66315 199.844 5.85065C199.844 6.71783 199.886 8.15924 199.972 10.1749C200.051 12.003 200.09 13.4405 200.09 14.4874L200.113 14.7803C200.121 14.8663 200.125 14.9639 200.125 15.0733C200.125 15.1671 200.121 15.2256 200.113 15.2491V15.3546ZM209.347 3.8233C209.347 3.74518 209.39 3.66315 209.476 3.57721C209.844 3.23346 210.418 2.72955 211.199 2.06549C211.941 1.44049 212.414 1.03033 212.617 0.835022C212.703 0.803772 212.769 0.788147 212.816 0.788147C213.004 0.788147 213.179 0.885803 213.344 1.08112C213.515 1.27643 213.601 1.47955 213.601 1.69049C213.601 1.85455 213.543 1.97955 213.426 2.06549C212.785 2.53424 211.621 3.21002 209.933 4.09283C209.879 4.12408 209.812 4.13971 209.734 4.13971C209.633 4.13971 209.543 4.10846 209.465 4.04596C209.386 3.98346 209.347 3.90924 209.347 3.8233ZM209.383 5.48737C209.719 5.48737 209.976 5.55768 210.156 5.6983C210.156 6.29205 210.312 7.83502 210.625 10.3272C210.937 12.8194 211.094 14.46 211.094 15.2491C211.094 15.9991 211.179 17.21 211.351 18.8819C211.515 20.6006 211.597 21.8897 211.597 22.7491C211.597 23.2881 211.332 23.5577 210.801 23.5577C210.543 23.5577 210.355 23.5108 210.238 23.4171C210.121 23.3233 210.062 23.1631 210.062 22.9366V19.8077C209.851 19.6592 209.461 19.5303 208.89 19.421C208.328 19.3038 207.785 19.2296 207.261 19.1983C207.105 19.4639 206.972 19.8702 206.863 20.4171L206.793 20.7803C206.668 21.421 206.554 21.9405 206.453 22.3389C206.351 22.7374 206.226 23.0577 206.078 23.2999C205.461 23.2999 205.109 23.1397 205.023 22.8194C205.172 22.6085 205.371 21.8585 205.621 20.5694C205.832 19.4678 206.094 18.003 206.406 16.1749C206.765 14.0499 207.094 12.2647 207.39 10.8194C207.687 9.36627 208 8.14362 208.328 7.15143C208.687 6.04205 209.039 5.48737 209.383 5.48737ZM209.793 15.7178C209.426 12.0147 209.242 9.80377 209.242 9.08502C209.242 8.96783 209.246 8.89752 209.254 8.87408C209.097 9.03033 208.879 9.75299 208.597 11.0421C208.316 12.3311 208.054 13.7178 207.812 15.2022C207.57 16.6788 207.437 17.6553 207.414 18.1319C208.094 18.3116 208.804 18.4014 209.547 18.4014C209.687 18.4014 209.851 18.378 210.039 18.3311C210.015 17.9874 209.933 17.1163 209.793 15.7178Z" fill="#555BA6"/>
<path d="M235.416 7.53815C235.322 7.85065 235.275 8.15533 235.275 8.45221C235.275 9.0694 235.357 9.6983 235.521 10.3389C235.686 10.9717 235.904 11.5577 236.178 12.0967L236.354 12.4483C237.104 13.9249 237.604 14.9288 237.854 15.46C238.127 16.0303 238.346 16.6788 238.51 17.4053C238.674 18.1241 238.756 18.8428 238.756 19.5616C238.756 20.0616 238.686 20.5694 238.545 21.085C238.412 21.6006 238.221 22.085 237.971 22.5381C237.705 23.0147 237.354 23.3936 236.916 23.6749C236.479 23.9561 235.998 24.0967 235.475 24.0967C234.896 24.0967 234.404 23.9913 233.998 23.7803C233.74 23.6553 233.611 23.4913 233.611 23.2881C233.611 23.1006 233.658 22.9483 233.752 22.8311C233.846 22.7061 233.979 22.6436 234.15 22.6436C234.338 22.6436 234.576 22.7022 234.865 22.8194C235.146 22.9444 235.35 23.0069 235.475 23.0069C235.771 23.0069 236.045 22.8741 236.295 22.6085C236.553 22.3428 236.756 21.9991 236.904 21.5772C237.045 21.1866 237.15 20.7999 237.221 20.4171C237.299 20.0342 237.338 19.6983 237.338 19.4092C237.338 18.7296 237.229 18.0108 237.01 17.253C236.791 16.4952 236.498 15.753 236.131 15.0264L235.791 14.3585C235.408 13.6163 235.1 12.9913 234.865 12.4835C234.631 11.9678 234.428 11.4249 234.256 10.8546C234.021 10.0889 233.904 9.34674 233.904 8.62799C233.904 8.04987 234.002 7.5069 234.197 6.99908C234.393 6.48346 234.693 6.04596 235.1 5.68658C235.506 5.31158 235.998 5.12408 236.576 5.12408C236.865 5.12408 237.146 5.20612 237.42 5.37018C237.693 5.53424 237.885 5.74127 237.994 5.99127L237.584 6.5069C237.186 6.5069 236.873 6.42877 236.646 6.27252C236.365 6.30377 236.111 6.44049 235.885 6.68268C235.666 6.92487 235.51 7.21002 235.416 7.53815ZM246.654 22.9249V23.0655L246.057 23.4756L245.424 23.4991C245.041 23.5225 244.709 23.5342 244.428 23.5342C243.045 23.5342 242.354 23.296 242.354 22.8194C242.354 22.4366 242.596 22.2452 243.08 22.2452C243.189 22.2452 243.283 22.2491 243.361 22.2569L243.584 22.2803C243.709 22.2803 243.799 22.2413 243.854 22.1631C243.908 22.0772 243.936 21.9288 243.936 21.7178C243.936 20.421 243.861 18.5694 243.713 16.1631C243.564 13.7647 243.49 11.9171 243.49 10.6202L243.514 9.38971L243.537 8.17096C243.537 7.6944 243.518 7.24908 243.479 6.83502C243.268 6.90533 243.08 6.94049 242.916 6.94049C242.541 6.94049 242.354 6.74908 242.354 6.36627C242.354 6.17877 242.471 6.01471 242.705 5.87408C242.939 5.72565 243.244 5.61627 243.619 5.54596C244.268 5.42877 244.834 5.37018 245.318 5.37018C245.506 5.37018 245.67 5.43658 245.811 5.5694C245.951 5.6944 246.021 5.84674 246.021 6.02643C246.021 6.1983 245.967 6.35065 245.857 6.48346C245.756 6.60846 245.623 6.67096 245.459 6.67096C245.365 6.67096 245.287 6.66705 245.225 6.65924H245.037C244.873 6.65924 244.756 6.6944 244.686 6.76471C244.615 6.83502 244.58 6.96393 244.58 7.15143C244.58 8.77643 244.678 11.1163 244.873 14.171C245.068 17.2256 245.166 19.5655 245.166 21.1905V22.1163C245.33 22.0928 245.494 22.0811 245.658 22.0811C246.322 22.0811 246.654 22.3624 246.654 22.9249Z" fill="#86C697"/>
<path d="M271.985 22.9835C271.453 23.4131 270.903 23.628 270.332 23.628C270.012 23.628 269.735 23.5577 269.5 23.4171C269.274 23.2686 269.16 23.0655 269.16 22.8077C269.512 22.4405 269.688 21.4991 269.688 19.9835C269.688 19.046 269.614 17.7217 269.465 16.0108C269.317 14.2999 269.242 12.9835 269.242 12.0616C269.242 11.7803 269.254 11.3467 269.278 10.7608C269.301 10.1749 269.313 9.73346 269.313 9.43658C269.313 8.99127 269.227 8.42096 269.055 7.72565C268.875 6.99127 268.785 6.48737 268.785 6.21393C268.785 5.65924 269.399 5.3819 270.625 5.3819H270.989C271.434 5.3819 271.848 5.45612 272.231 5.60455C272.621 5.74518 272.961 5.93658 273.25 6.17877C273.508 6.39752 273.746 6.68268 273.965 7.03424C274.192 7.37799 274.383 7.73737 274.539 8.11237C274.672 8.44049 274.789 8.82721 274.891 9.27252C275 9.71002 275.086 10.1202 275.149 10.503C275.188 10.8155 275.223 11.1827 275.254 11.6046C275.285 12.0186 275.305 12.3624 275.313 12.6358V13.3975V14.5108C275.274 14.5733 275.254 14.6436 275.254 14.7217C275.254 14.7999 275.266 14.8936 275.289 15.003L275.313 15.2374C275.313 15.753 275.235 16.3624 275.078 17.0655C274.922 17.7686 274.699 18.4952 274.41 19.2452C274.074 20.0811 273.711 20.8155 273.321 21.4483C272.93 22.0733 272.485 22.585 271.985 22.9835ZM270.555 13.3741C270.742 16.2803 270.836 18.4678 270.836 19.9366V22.2335C271.422 21.8506 271.938 21.3155 272.383 20.628C272.836 19.9327 273.184 19.1592 273.426 18.3077C273.864 16.7296 274.082 15.1475 274.082 13.5616C274.082 12.6866 274 11.7452 273.836 10.7374C273.664 9.75299 273.293 8.85065 272.723 8.03033C272.457 7.64752 272.11 7.35065 271.68 7.13971C271.258 6.92877 270.785 6.8233 270.262 6.8233V6.84674C270.262 8.34674 270.36 10.5225 270.555 13.3741ZM281.828 3.8233C281.828 3.74518 281.871 3.66315 281.957 3.57721C282.317 3.23346 282.891 2.72955 283.68 2.06549C284.422 1.44049 284.895 1.03033 285.098 0.835022C285.184 0.803772 285.25 0.788147 285.297 0.788147C285.485 0.788147 285.66 0.885803 285.824 1.08112C285.996 1.27643 286.082 1.47955 286.082 1.69049C286.082 1.85455 286.024 1.97955 285.906 2.06549C285.266 2.53424 284.102 3.21002 282.414 4.09283C282.36 4.12408 282.293 4.13971 282.215 4.13971C282.114 4.13971 282.024 4.10846 281.946 4.04596C281.867 3.98346 281.828 3.90924 281.828 3.8233ZM281.114 5.1944C281.379 5.06158 281.664 4.99518 281.969 4.99518C282.383 4.99518 282.762 5.08112 283.106 5.25299C283.449 5.42487 283.742 5.67487 283.985 6.00299C284.242 6.36237 284.461 6.74127 284.641 7.13971C284.821 7.53815 284.965 7.99518 285.074 8.5108C285.199 9.12799 285.297 9.67487 285.367 10.1514C285.438 10.628 285.485 11.1592 285.508 11.7452C285.563 12.9249 285.59 13.9913 285.59 14.9444V16.3272C285.59 16.6788 285.555 17.1905 285.485 17.8624C285.414 18.5264 285.379 19.0264 285.379 19.3624V19.4678C285.278 19.8975 285.227 20.4249 285.227 21.0499C285.227 21.4952 285.133 21.9561 284.946 22.4327C284.758 22.9092 284.489 23.3233 284.137 23.6749C283.778 24.0499 283.375 24.2374 282.93 24.2374C282.508 24.2374 282.114 24.0928 281.746 23.8038C281.387 23.5147 281.086 23.128 280.844 22.6436C280.617 22.1983 280.414 21.6553 280.235 21.0147C280.055 20.3741 279.914 19.7335 279.813 19.0928C279.719 18.5303 279.641 17.9171 279.578 17.253C279.524 16.5811 279.485 15.9874 279.461 15.4717C279.446 14.878 279.438 14.4561 279.438 14.2061C279.438 13.7686 279.434 13.3389 279.426 12.9171L279.403 11.4053C279.403 10.4522 279.442 9.60065 279.52 8.85065C279.598 8.0069 279.762 7.25299 280.012 6.58893C280.145 6.24518 280.297 5.96393 280.469 5.74518C280.641 5.51862 280.856 5.33502 281.114 5.1944ZM282.86 6.58893C282.625 6.37018 282.367 6.2608 282.086 6.2608C281.711 6.2608 281.414 6.5733 281.196 7.1983C280.953 7.90924 280.797 8.62799 280.727 9.35455C280.625 10.3155 280.567 11.1241 280.551 11.7803L280.539 12.2256C280.524 12.9756 280.516 13.3936 280.516 13.4796V13.585C280.516 14.6475 280.621 15.9639 280.832 17.5342C280.965 18.5577 281.117 19.4444 281.289 20.1944C281.469 20.9444 281.699 21.5772 281.981 22.0928C282.278 22.6475 282.61 22.9249 282.977 22.9249C283.297 22.9249 283.571 22.6241 283.797 22.0225C283.992 21.4913 284.137 20.835 284.231 20.0538C284.324 19.2647 284.399 18.4171 284.453 17.5108C284.485 16.9561 284.5 16.4249 284.5 15.9171C284.5 15.1983 284.489 14.46 284.465 13.7022C284.426 12.8506 284.332 11.7725 284.184 10.4678C284.051 9.39752 283.813 8.42096 283.469 7.53815C283.305 7.12408 283.102 6.80768 282.86 6.58893Z" fill="#DA6F58"/>
</svg>
